<?xml version="1.0" encoding="utf-8"?>
<svg version="1.1" id="ecommerce_1_" xmlns="http://www.w3.org/2000/svg" xmlns:xlink="http://www.w3.org/1999/xlink" x="0px"
	 y="0px" viewBox="0 0 115 115" style="enable-background:new 0 0 115 115;" xml:space="preserve">
<style type="text/css">
	.st0{fill:#FFEEAD;}
	.st1{fill:#C9B77D;}
	.st2{fill:#99734A;}
	.st3{fill:#FF6F69;}
	.st4{fill:#96CEB4;}
	.st5{fill:none;}
	.st6{fill:#AA9865;}
	.st7{fill:#71A58A;}
	.st8{fill:#FFCC5C;}
	.st9{fill:#825E3B;}
	.st10{fill:#639376;}
	.st11{fill:#E05858;}
	.st12{fill:#C1821E;}
	.st13{fill:#D6A041;}
	.st14{fill:#B28559;}
	.st15{fill:#BF4343;}
	.st16{fill:#D3C089;}
	.st17{fill:#7C5C3C;}
	.st18{fill:#FDCC5C;}
	.st19{fill:#FFFFFF;}
</style>
<g id="ecommerce_2_">
	<g>
		<g>
			<g>
				<circle class="st13" cx="57.5" cy="61.423" r="53.577"/>
			</g>
		</g>
		<g>
			<g>
				<circle class="st8" cx="57.5" cy="53.577" r="53.577"/>
			</g>
		</g>
		<g>
			<g>
				<circle class="st19" cx="57.5" cy="53.577" r="41.702"/>
			</g>
		</g>
		<g>
			<g>
				<circle class="st0" cx="57.5" cy="53.577" r="38.608"/>
			</g>
		</g>
	</g>
	<g>
		<g>
			<g>
				<path class="st13" d="M69.465,61.344c-4.705,0-5.858,2.977-6.145,3.553c-0.193,0.576-0.289,1.248-0.385,1.92
					c-0.287,1.152-0.767,3.36-4.224,3.36c-4.8,0-4.8-4.225-4.896-12.098h15.265c4.992,0,8.835-0.288,8.835-9.025
					c0-6.479-0.766-18.037-15.021-20.027v-6.227c0-1.231-0.997-2.228-2.228-2.228h-6.396c-1.231,0-2.228,0.998-2.228,2.228v6.589
					c-4.53,1.009-7.979,3.083-10.132,5.84c-3.553,4.513-3.744,10.465-3.744,21.41c0,8.065,0.096,14.21,5.376,19.01
					c1.367,1.23,3.862,3.086,8.5,4.057v5.804c0,1.231,0.998,2.228,2.228,2.228h6.396c1.231,0,2.228-0.998,2.228-2.228v-5.417
					c4.902-0.608,7.96-2.241,9.644-3.772c2.497-2.113,3.84-5.28,3.84-8.258C76.376,63.84,73.496,61.344,69.465,61.344z
					 M55.158,40.798c1.152-1.344,2.688-1.344,3.17-1.344c4.416,0,4.416,3.36,4.513,8.448h-8.929
					C54.005,43.965,54.102,42.045,55.158,40.798z"/>
			</g>
		</g>
	</g>
	<g>
		<g>
			<g>
				<path class="st8" d="M69.465,57.873c-4.705,0-5.858,2.977-6.145,3.553c-0.193,0.576-0.289,1.248-0.385,1.92
					c-0.287,1.152-0.767,3.36-4.224,3.36c-4.8,0-4.8-4.225-4.896-12.098h15.265c4.992,0,8.835-0.288,8.835-9.025
					c0-6.479-0.766-18.037-15.021-20.027v-6.227c0-1.231-0.997-2.228-2.228-2.228h-6.396c-1.231,0-2.228,0.998-2.228,2.228v6.589
					c-4.53,1.009-7.979,3.083-10.132,5.84c-3.553,4.513-3.744,10.465-3.744,21.41c0,8.065,0.096,14.21,5.376,19.01
					c1.367,1.23,3.862,3.086,8.5,4.057v5.804c0,1.231,0.998,2.228,2.228,2.228h6.396c1.231,0,2.228-0.998,2.228-2.228v-5.417
					c4.902-0.608,7.96-2.241,9.644-3.772c2.497-2.113,3.84-5.28,3.84-8.258C76.376,60.37,73.496,57.873,69.465,57.873z
					 M55.158,37.327c1.152-1.344,2.688-1.344,3.17-1.344c4.416,0,4.416,3.36,4.513,8.448h-8.929
					C54.005,40.495,54.102,38.575,55.158,37.327z"/>
			</g>
		</g>
	</g>
</g>
</svg>
